<svg viewBox="0 0 512 512" xmlns="http://www.w3.org/2000/svg"><g fill="currentColor"><path d="M256.004 128.536c-70.29 0-127.47 57.18-127.47 127.464 0 70.28 57.18 127.464 127.46 127.464s127.46-57.18 127.46-127.464c0-70.29-57.19-127.464-127.47-127.464Zm0 224.92c-53.75 0-97.47-43.73-97.47-97.464 0-53.75 43.72-97.464 97.46-97.464 53.74 0 97.46 43.72 97.46 97.464 0 53.74-43.73 97.464-97.47 97.464Z"/><path d="M376.5 0h-241C60.785 0 0 60.78 0 135.5v241C0 451.21 60.78 512 135.5 512h241c74.71 0 135.5-60.79 135.5-135.5v-241C512 60.785 451.21 0 376.5 0ZM482 376.5c0 58.173-47.327 105.5-105.5 105.5h-241C77.327 482 30 434.673 30 376.5v-241C30 77.327 77.327 30 135.5 30h241C434.673 30 482 77.327 482 135.5Z"/><path d="M398.6 98.4c-3.95 0-7.81 1.6-10.6 4.4 -2.8 2.79-4.4 6.65-4.4 10.6 0 3.95 1.6 7.82 4.4 10.61 2.79 2.79 6.64 4.39 10.6 4.39 3.95 0 7.82-1.6 10.61-4.39 2.79-2.79 4.39-6.66 4.39-10.61 0-3.94-1.6-7.81-4.39-10.6 -2.79-2.8-6.66-4.4-10.61-4.4Z"/></g></svg>